<svg width="48" height="48" viewBox="0 0 48 48" fill="none" xmlns="http://www.w3.org/2000/svg">
<path d="M24.6383 24.5072H17.4713V21.7377C17.4704 21.1887 17.2519 20.6625 16.8636 20.2744C16.4753 19.8864 15.9489 19.6682 15.4 19.6677H15.25C14.7009 19.6682 14.1745 19.8863 13.7861 20.2744C13.3977 20.6624 13.1791 21.1887 13.1781 21.7377V24.5072H6.28125V9.23768C6.28202 8.56734 6.54862 7.92466 7.0226 7.45061C7.49657 6.97657 8.1392 6.70986 8.80955 6.70898H24.6383V11.739H25.9497C26.8745 11.7402 27.7611 12.1081 28.415 12.762C29.069 13.4159 29.4369 14.3025 29.438 15.2273V15.3773C29.4371 16.3022 29.0693 17.189 28.4153 17.8432C27.7614 18.4973 26.8747 18.8653 25.9497 18.8666H24.6383V24.5072ZM18.8883 23.0892H23.2213V17.4492H25.9497C26.4989 17.4487 27.0255 17.2303 27.4138 16.8419C27.8021 16.4536 28.0205 15.9271 28.021 15.3779V15.2279C28.0202 14.6789 27.8017 14.1527 27.4134 13.7646C27.0251 13.3766 26.4987 13.1584 25.9497 13.1579H23.2213V8.12788H8.80955C8.66326 8.12623 8.51811 8.15379 8.38262 8.20897C8.24713 8.26415 8.12402 8.34583 8.02051 8.44922C7.917 8.55261 7.83518 8.67562 7.77984 8.81105C7.7245 8.94648 7.69676 9.09159 7.69825 9.23788V23.089H11.7613V21.7377C11.7623 20.8127 12.1302 19.926 12.7843 19.2719C13.4383 18.6179 14.3251 18.25 15.25 18.249H15.4C16.3248 18.2501 17.2114 18.618 17.8654 19.272C18.5193 19.9259 18.8872 20.8125 18.8883 21.7373L18.8883 23.0892Z" fill="black"/>
<path d="M32.4751 29.3471H32.3251C31.4029 29.346 30.5189 28.9792 29.8668 28.3272C29.2147 27.6751 28.8479 26.7911 28.8467 25.869V24.5072H23.2267V17.4496H25.9552C26.5043 17.4491 27.0309 17.2307 27.4192 16.8423C27.8075 16.454 28.0259 15.9275 28.0265 15.3783V15.2283C28.0256 14.6793 27.8071 14.1531 27.4188 13.765C27.0305 13.377 26.5041 13.1588 25.9552 13.1583H23.2266V6.70899H39.165C39.8366 6.70845 40.4811 6.97433 40.957 7.4483C41.4329 7.92226 41.7014 8.56563 41.7036 9.23729V24.5072H35.9636V25.869C35.961 26.7925 35.5923 27.6772 34.9384 28.3292C34.2844 28.9813 33.3985 29.3473 32.4751 29.3471V29.3471ZM24.6436 23.089H30.2636V25.869C30.2644 26.4154 30.4819 26.9391 30.8684 27.3253C31.2549 27.7115 31.7788 27.9286 32.3252 27.929H32.4752C33.0229 27.9299 33.5485 27.7135 33.9369 27.3273C34.3253 26.9411 34.5446 26.4167 34.5469 25.869V23.089H40.2869V9.23769C40.2849 8.9419 40.1657 8.65896 39.9555 8.45089C39.7452 8.24282 39.4611 8.12659 39.1653 8.12769H24.6436V11.74H25.9551C26.8798 11.7412 27.7664 12.1091 28.4203 12.763C29.0743 13.4169 29.4422 14.3035 29.4434 15.2283V15.3783C29.4424 16.3032 29.0746 17.19 28.4206 17.8442C27.7667 18.4983 26.88 18.8663 25.9551 18.8676H24.6436V23.089Z" fill="black"/>
<path d="M39.165 42.1272H23.2266V35.9372H21.875C20.9515 35.9374 20.0656 35.5713 19.4116 34.9192C18.7577 34.2671 18.3891 33.3822 18.3867 32.4587V32.3087C18.3876 31.3836 18.7553 30.4967 19.4093 29.8425C20.0632 29.1882 20.95 28.8201 21.875 28.8189H23.2266V23.0889H30.2637V25.8689C30.2645 26.4152 30.482 26.939 30.8685 27.3252C31.255 27.7114 31.7789 27.9285 32.3252 27.9289H32.4752C33.0229 27.9297 33.5486 27.7134 33.937 27.3272C34.3253 26.941 34.5447 26.4166 34.5469 25.8689V23.0889H41.7036V39.5882C41.7028 40.2612 41.4351 40.9065 40.9592 41.3825C40.4833 41.8585 39.8381 42.1263 39.165 42.1272V42.1272ZM24.6436 40.7089H39.165C39.4623 40.7086 39.7473 40.5904 39.9576 40.3802C40.1678 40.17 40.2862 39.8851 40.2866 39.5878V24.5071H35.9639V25.8689C35.9615 26.7925 35.5928 27.6774 34.9388 28.3296C34.2848 28.9817 33.3987 29.3478 32.4751 29.3475H32.3251C31.4029 29.3464 30.5188 28.9795 29.8667 28.3274C29.2146 27.6752 28.8478 26.7911 28.8467 25.8689V24.5071H24.6436V30.2371H21.875C21.3258 30.2376 20.7993 30.456 20.411 30.8443C20.0226 31.2327 19.8042 31.7592 19.8037 32.3084V32.4584C19.8058 33.006 20.0251 33.5305 20.4134 33.9167C20.8017 34.3029 21.3274 34.5193 21.875 34.5184H24.6436V40.7089Z" fill="black"/>
<path d="M24.6383 42.1273H8.80955C8.13786 42.125 7.49449 41.8565 7.02054 41.3805C6.54658 40.9045 6.28072 40.26 6.28125 39.5883V23.089H11.7613V21.7377C11.7623 20.8128 12.1302 19.926 12.7843 19.272C13.4383 18.6179 14.3251 18.2501 15.2501 18.249H15.4001C16.3248 18.2502 17.2114 18.6181 17.8654 19.272C18.5193 19.9259 18.8872 20.8125 18.8884 21.7373V23.089H24.6384V30.2365H21.8697C21.3205 30.2371 20.7939 30.4555 20.4056 30.8438C20.0173 31.2321 19.7989 31.7586 19.7984 32.3078V32.4578C19.8004 33.0055 20.0197 33.53 20.408 33.9162C20.7963 34.3023 21.322 34.5187 21.8697 34.5178H24.6383V42.1273ZM7.69825 24.5073V39.5883C7.6974 39.8842 7.81391 40.1683 8.02223 40.3784C8.23056 40.5885 8.51369 40.7074 8.80955 40.709H23.2213V35.9369H21.8697C20.9461 35.9371 20.0602 35.571 19.4063 34.9189C18.7523 34.2668 18.3837 33.382 18.3814 32.4584V32.3084C18.3823 31.3835 18.7501 30.4966 19.404 29.8425C20.058 29.1883 20.9447 28.8203 21.8697 28.819H23.2213V24.5072H17.4713V21.7377C17.4704 21.1888 17.2519 20.6625 16.8636 20.2745C16.4753 19.8864 15.9489 19.6682 15.4 19.6677H15.25C14.7009 19.6682 14.1745 19.8864 13.7861 20.2744C13.3977 20.6625 13.1791 21.1887 13.1782 21.7377V24.5072L7.69825 24.5073Z" fill="black"/>
<path d="M41.1221 23.0918H40.9922V24.5098H41.1221V23.0918Z" fill="black"/>
<path d="M6.99709 23.0918H6.86719V24.5098H6.99709V23.0918Z" fill="black"/>
<path d="M24.6436 41.4199H23.2266V41.5898H24.6436V41.4199Z" fill="black"/>
<path d="M24.6436 7.28906H23.2266V7.41896H24.6436V7.28906Z" fill="black"/>
</svg>
