<svg width="48" height="48" viewBox="0 0 48 48" fill="none" xmlns="http://www.w3.org/2000/svg">
<path d="M36.1422 35.4627H12.2787C12.2383 35.4626 12.1979 35.459 12.1581 35.4519C10.5626 35.3921 9.04237 34.7585 7.87667 33.6676C6.71097 32.5766 5.97818 31.1016 5.81295 29.5136C5.64772 27.9256 6.06117 26.3313 6.97731 25.0237C7.89345 23.7162 9.25072 22.7832 10.7997 22.3962C10.8702 19.3639 12.019 16.4559 14.04 14.1941C16.061 11.9323 18.8218 10.4647 21.8271 10.0546C24.8325 9.64458 27.8856 10.3189 30.4386 11.9567C32.9916 13.5944 34.8774 16.0884 35.7577 18.991C35.7718 18.99 35.7865 18.99 35.8011 18.99C37.9392 18.9885 39.994 19.819 41.5306 21.3058C43.0672 22.7925 43.9649 24.8189 44.0338 26.9559C44.1027 29.0929 43.3373 31.1729 41.8996 32.7555C40.462 34.3381 38.4649 35.2992 36.3311 35.4353C36.2697 35.4534 36.2061 35.4626 36.1422 35.4627V35.4627ZM12.3776 34.0447H35.9876C36.028 34.0357 36.0692 34.0301 36.1106 34.0281C37.8899 33.9486 39.5673 33.1755 40.7836 31.8743C41.9999 30.5732 42.6584 28.8476 42.6179 27.0669C42.5775 25.2863 41.8415 23.5923 40.5674 22.3477C39.2933 21.1031 37.5826 20.4069 35.8015 20.4081C35.6262 20.4081 35.4544 20.4217 35.2825 20.4354C35.1162 20.447 34.9511 20.4002 34.8157 20.303C34.6803 20.2059 34.583 20.0645 34.5408 19.9032C33.8606 17.2241 32.2252 14.8857 29.9419 13.3277C27.6587 11.7697 24.8849 11.0995 22.1422 11.4431C19.3995 11.7867 16.8768 13.1203 15.0484 15.1934C13.22 17.2664 12.2119 19.936 12.2136 22.7001L12.2278 22.9549C12.2324 23.1276 12.1737 23.2961 12.0627 23.4285C11.9517 23.5609 11.7961 23.6481 11.6253 23.6737C10.3351 23.8695 9.16529 24.5421 8.34696 25.5585C7.52862 26.575 7.12131 27.8614 7.20548 29.1637C7.28966 30.4659 7.8592 31.6892 8.80159 32.5919C9.74397 33.4945 10.9906 34.0109 12.2953 34.0389C12.3228 34.0389 12.3503 34.0408 12.3776 34.0447V34.0447Z" fill="black"/>
<path d="M43.3356 27.9415C43.2425 27.9415 43.1503 27.9232 43.0643 27.8876C42.9783 27.8519 42.9002 27.7997 42.8344 27.7339C42.7686 27.668 42.7164 27.5898 42.6809 27.5038C42.6453 27.4178 42.627 27.3256 42.6271 27.2325C42.6267 25.6648 42.0802 24.1463 41.0814 22.9379C40.0827 21.7295 38.6942 20.9068 37.1546 20.6112C35.615 20.3157 34.0205 20.5657 32.6453 21.3184C31.2701 22.0711 30.2001 23.2793 29.6193 24.7354C29.5488 24.9089 29.4126 25.0475 29.2404 25.1209C29.0681 25.1943 28.8738 25.1965 28.6999 25.1271C28.526 25.0577 28.3866 24.9223 28.3122 24.7505C28.2378 24.5786 28.2345 24.3843 28.3029 24.21C29.0057 22.4478 30.3006 20.9854 31.9649 20.0745C33.6291 19.1635 35.5588 18.8609 37.4221 19.2187C39.2853 19.5764 40.9657 20.5722 42.1742 22.0348C43.3827 23.4973 44.0439 25.3353 44.0441 27.2325C44.0441 27.3256 44.0259 27.4178 43.9903 27.5038C43.9547 27.5898 43.9025 27.668 43.8367 27.7339C43.7709 27.7997 43.6928 27.8519 43.6068 27.8876C43.5208 27.9232 43.4287 27.9415 43.3356 27.9415V27.9415Z" fill="black"/>
</svg>
