<svg width="48" height="48" viewBox="0 0 48 48" fill="none" xmlns="http://www.w3.org/2000/svg">
<path d="M23.8024 30.1506C23.6967 30.1509 23.5922 30.1273 23.4968 30.0816C23.4014 30.036 23.3174 29.9694 23.2512 29.8869L18.4388 23.9377C18.3803 23.8654 18.3366 23.7823 18.3103 23.6931C18.2839 23.6039 18.2754 23.5104 18.2852 23.4179C18.295 23.3254 18.3229 23.2357 18.3673 23.154C18.4118 23.0723 18.4719 23.0002 18.5442 22.9417C18.6165 22.8832 18.6997 22.8395 18.7889 22.8132C18.8781 22.7868 18.9716 22.7783 19.0641 22.7881C19.1566 22.7979 19.2462 22.8258 19.3279 22.8703C19.4096 22.9147 19.4818 22.9748 19.5402 23.0471L24.3524 28.9963C24.4365 29.1003 24.4894 29.226 24.5051 29.3587C24.5207 29.4915 24.4985 29.626 24.441 29.7467C24.3835 29.8674 24.293 29.9694 24.18 30.0409C24.067 30.1123 23.9361 30.1504 23.8024 30.1506Z" fill="black"/>
<path d="M23.8175 30.1223C23.6853 30.122 23.5559 30.0849 23.4437 30.015C23.3315 29.9451 23.2411 29.8453 23.1826 29.7268C23.1241 29.6083 23.0999 29.4758 23.1127 29.3442C23.1255 29.2127 23.1748 29.0873 23.255 28.9823L30.0982 20.036C30.1548 19.9621 30.2253 19.9 30.3059 19.8533C30.3864 19.8067 30.4754 19.7763 30.5676 19.764C30.6599 19.7517 30.7537 19.7577 30.8436 19.7817C30.9336 19.8056 31.0179 19.8471 31.0919 19.9036C31.1658 19.9602 31.2279 20.0308 31.2745 20.1113C31.3212 20.1918 31.3515 20.2808 31.3638 20.373C31.3761 20.4653 31.3701 20.5591 31.3462 20.6491C31.3222 20.739 31.2808 20.8233 31.2242 20.8973L24.3809 29.844C24.3148 29.9306 24.2295 30.0008 24.1318 30.0491C24.0341 30.0974 23.9265 30.1224 23.8175 30.1223V30.1223Z" fill="black"/>
<path d="M23.666 41.3898C23.5878 41.3899 23.5101 41.377 23.436 41.3517C14.6475 38.3428 8.74224 29.6357 8.74224 19.6856C8.7374 17.3379 9.07206 15.0018 9.73584 12.7498C9.78855 12.5705 9.91008 12.4194 10.0739 12.3295C10.2377 12.2395 10.4304 12.2181 10.6099 12.2698C11.697 12.5757 12.8214 12.7286 13.9507 12.7239C15.6743 12.7214 17.3792 12.3669 18.9609 11.682C20.5425 10.9971 21.9676 9.99642 23.1487 8.7412C23.215 8.67034 23.295 8.61384 23.384 8.5752C23.4729 8.53657 23.5689 8.51662 23.6658 8.5166H23.6688C23.7662 8.5172 23.8625 8.53779 23.9516 8.57709C24.0407 8.6164 24.1207 8.67358 24.1868 8.7451C25.363 10.0303 26.7953 11.0548 28.3915 11.7527C29.9877 12.4505 31.7124 12.8062 33.4544 12.7969C34.594 12.8007 35.7287 12.6476 36.8266 12.3418C37.0063 12.2905 37.199 12.3124 37.3626 12.4028C37.5262 12.4932 37.6474 12.6447 37.6996 12.8242C38.3442 15.0394 38.6686 17.3355 38.6629 19.6426C38.6629 29.6357 32.7273 38.3594 23.8934 41.3516C23.8203 41.3768 23.7434 41.3897 23.666 41.3898ZM10.9107 13.8086C10.4087 15.7272 10.1561 17.7024 10.1592 19.6856C10.1592 28.9434 15.5772 37.0456 23.667 39.9307C31.7993 37.0607 37.2461 28.9407 37.2461 19.6426C37.2501 17.6991 37.0066 15.7629 36.5215 13.8809C35.5147 14.1048 34.4861 14.2168 33.4546 14.2148C29.793 14.2342 26.2723 12.8044 23.6611 10.2373C21.046 12.7375 17.5691 14.1355 13.9511 14.1416C12.9285 14.1437 11.9087 14.032 10.9107 13.8086Z" fill="black"/>
</svg>
