<svg width="48" height="48" viewBox="0 0 48 48" fill="none" xmlns="http://www.w3.org/2000/svg">
<path d="M23.9935 24.7549C22.7641 24.7548 21.5623 24.3903 20.54 23.7072C19.5178 23.0241 18.721 22.0533 18.2505 20.9174C17.78 19.7815 17.6569 18.5317 17.8968 17.3258C18.1366 16.12 18.7287 15.0124 19.598 14.143C20.4674 13.2737 21.575 12.6816 22.7808 12.4417C23.9866 12.2019 25.2365 12.3249 26.3724 12.7954C27.5083 13.2659 28.4791 14.0626 29.1622 15.0848C29.8453 16.1071 30.2099 17.3089 30.2099 18.5384C30.2082 20.1865 29.5527 21.7667 28.3873 22.9321C27.2218 24.0975 25.6417 24.7531 23.9935 24.7549V24.7549ZM23.9935 13.7103C23.0386 13.7103 22.1051 13.9935 21.3111 14.5241C20.5171 15.0547 19.8983 15.8088 19.5329 16.691C19.1675 17.5733 19.0719 18.5441 19.2583 19.4807C19.4446 20.4173 19.9045 21.2776 20.5798 21.9528C21.255 22.6281 22.1154 23.0879 23.052 23.2741C23.9886 23.4604 24.9594 23.3647 25.8416 22.9993C26.7239 22.6338 27.4779 22.0149 28.0084 21.2209C28.539 20.4268 28.8221 19.4933 28.822 18.5384C28.8205 17.2583 28.3113 16.031 27.4061 15.1259C26.5009 14.2208 25.2736 13.7117 23.9935 13.7103V13.7103Z" fill="black"/>
<path d="M36.1422 36.2875H11.8594L11.8617 35.5912C11.8617 32.3718 13.1406 29.2841 15.4171 27.0076C17.6937 24.7311 20.7813 23.4521 24.0008 23.4521C27.2203 23.4521 30.3079 24.7311 32.5844 27.0076C34.8609 29.2841 36.1399 32.3718 36.1399 35.5912L36.1422 36.2875ZM13.2741 34.899H34.7275C34.5432 32.1797 33.333 29.6318 31.3416 27.7708C29.3502 25.9098 26.7264 24.8746 24.0008 24.8746C21.2752 24.8746 18.6513 25.9098 16.6599 27.7708C14.6686 29.6318 13.4583 32.1797 13.2741 34.899V34.899Z" fill="black"/>
<path d="M37.811 24.61C36.8317 24.6101 35.8743 24.3197 35.0601 23.7756C34.2458 23.2316 33.6111 22.4583 33.2363 21.5535C32.8615 20.6488 32.7635 19.6532 32.9545 18.6927C33.1455 17.7322 33.6171 16.8499 34.3095 16.1574C35.002 15.4649 35.8842 14.9933 36.8447 14.8022C37.8052 14.6111 38.8008 14.7091 39.7056 15.0839C40.6104 15.4586 41.3837 16.0932 41.9278 16.9075C42.4719 17.7217 42.7623 18.679 42.7624 19.6583C42.761 20.9711 42.2389 22.2298 41.3106 23.1581C40.3824 24.0864 39.1238 24.6086 37.811 24.61V24.61ZM37.811 16.095C37.1061 16.095 36.4171 16.304 35.8311 16.6956C35.245 17.0872 34.7883 17.6437 34.5185 18.2949C34.2488 18.9461 34.1782 19.6626 34.3158 20.3539C34.4533 21.0452 34.7927 21.6802 35.2911 22.1786C35.7895 22.6769 36.4245 23.0163 37.1158 23.1538C37.8071 23.2913 38.5236 23.2207 39.1748 22.9509C39.826 22.6811 40.3825 22.2243 40.774 21.6383C41.1656 21.0522 41.3745 20.3632 41.3745 19.6583C41.3733 18.7136 40.9974 17.808 40.3294 17.14C39.6614 16.472 38.7557 16.0962 37.811 16.095V16.095Z" fill="black"/>
<path d="M35.3544 33.5116C35.1717 33.5094 34.9972 33.4353 34.8687 33.3053C34.7403 33.1753 34.6683 32.9999 34.6683 32.8172C34.6683 32.6344 34.7403 32.459 34.8687 32.329C34.9972 32.199 35.1717 32.1249 35.3544 32.1227L45.9126 32.1141C45.7292 30.0918 44.7972 28.2108 43.2992 26.8397C41.8013 25.4687 39.8453 24.7065 37.8146 24.7024C36.7121 24.6982 35.6204 24.9204 34.6072 25.3551C33.5939 25.7898 32.6807 26.4278 31.9239 27.2296C31.7971 27.3631 31.6224 27.4407 31.4383 27.4453C31.2543 27.45 31.0759 27.3813 30.9425 27.2545C30.809 27.1276 30.7314 26.953 30.7268 26.7689C30.7221 26.5848 30.7908 26.4065 30.9176 26.273C31.8037 25.3343 32.873 24.5874 34.0593 24.0785C35.2456 23.5696 36.5238 23.3096 37.8146 23.3145C40.3329 23.319 42.7471 24.3196 44.5302 26.0978C46.3134 27.8761 47.3206 30.2875 47.3321 32.8057L47.3345 33.501L35.3554 33.5116H35.3544Z" fill="black"/>
<path d="M10.1899 24.61C9.21057 24.6101 8.25325 24.3197 7.43897 23.7756C6.62469 23.2316 5.99003 22.4583 5.61524 21.5535C5.24045 20.6488 5.14237 19.6532 5.3334 18.6927C5.52443 17.7322 5.99598 16.8499 6.68844 16.1574C7.38089 15.4649 8.26315 14.9933 9.22363 14.8022C10.1841 14.6111 11.1797 14.7091 12.0845 15.0839C12.9893 15.4586 13.7626 16.0932 14.3067 16.9075C14.8508 17.7217 15.1412 18.679 15.1413 19.6583C15.1399 20.9711 14.6178 22.2298 13.6895 23.1581C12.7613 24.0864 11.5027 24.6086 10.1899 24.61ZM10.1899 16.095C9.48507 16.0951 8.7961 16.3042 8.2101 16.6958C7.62411 17.0874 7.1674 17.644 6.89773 18.2952C6.62807 18.9464 6.55756 19.6629 6.69512 20.3542C6.83268 21.0454 7.17213 21.6804 7.67055 22.1787C8.16897 22.677 8.80397 23.0164 9.49525 23.1538C10.1865 23.2913 10.9031 23.2206 11.5542 22.9509C12.2053 22.6811 12.7619 22.2243 13.1534 21.6382C13.5449 21.0522 13.7538 20.3631 13.7538 19.6583C13.7526 18.7136 13.3767 17.8078 12.7086 17.1398C12.0404 16.4718 11.1347 16.0961 10.1899 16.095V16.095Z" fill="black"/>
<path d="M12.6476 33.5116L0.667969 33.501L0.670369 32.8057C0.681854 30.2875 1.68911 27.8761 3.47225 26.0978C5.2554 24.3196 7.66961 23.319 10.1879 23.3145C11.4787 23.3095 12.7567 23.5695 13.943 24.0784C15.1293 24.5873 16.1984 25.3342 17.0844 26.273C17.1481 26.3389 17.1981 26.4168 17.2315 26.5021C17.265 26.5874 17.2812 26.6785 17.2793 26.7702C17.2773 26.8618 17.2573 26.9521 17.2203 27.036C17.1832 27.1198 17.13 27.1955 17.0636 27.2586C16.9971 27.3218 16.9189 27.3711 16.8333 27.4039C16.7477 27.4366 16.6564 27.4521 16.5648 27.4494C16.4732 27.4467 16.383 27.4259 16.2995 27.3882C16.216 27.3505 16.1408 27.2966 16.0782 27.2296C15.3216 26.4278 14.4085 25.7897 13.3953 25.355C12.3822 24.9203 11.2906 24.6982 10.1882 24.7024C8.1575 24.7065 6.20154 25.4687 4.70356 26.8397C3.20559 28.2108 2.27358 30.0918 2.09017 32.1141L12.6484 32.1227C12.8311 32.125 13.0056 32.1992 13.134 32.3292C13.2624 32.4593 13.3344 32.6347 13.3343 32.8174C13.3342 33.0002 13.2621 33.1755 13.1336 33.3055C13.0051 33.4354 12.8306 33.5095 12.6479 33.5116H12.6476Z" fill="black"/>
</svg>
