<svg width="48" height="48" viewBox="0 0 48 48" fill="none" xmlns="http://www.w3.org/2000/svg">
<path d="M39.1056 40.4956H8.88556C8.2136 40.4946 7.56945 40.2272 7.09441 39.7519C6.61937 39.2766 6.35222 38.6324 6.35156 37.9604V18.0967C6.35228 17.4248 6.61947 16.7807 7.09453 16.3056C7.56959 15.8305 8.21371 15.5633 8.88556 15.5625H39.1056C39.7774 15.5633 40.4215 15.8305 40.8966 16.3056C41.3716 16.7807 41.6388 17.4248 41.6396 18.0967V37.9604C41.6389 38.6324 41.3717 39.2766 40.8967 39.7519C40.4217 40.2272 39.7775 40.4946 39.1056 40.4956V40.4956ZM8.88556 16.9795C8.58941 16.98 8.30552 17.0978 8.09611 17.3072C7.88671 17.5166 7.76889 17.8005 7.76846 18.0967V37.9604C7.76881 38.2566 7.88661 38.5405 8.09603 38.75C8.30545 38.9594 8.58939 39.0772 8.88556 39.0776H39.1056C39.4018 39.0773 39.6857 38.9594 39.8952 38.75C40.1046 38.5406 40.2224 38.2566 40.2228 37.9604V18.0967C40.2223 17.8005 40.1045 17.5166 39.8951 17.3072C39.6856 17.0978 39.4017 16.9799 39.1056 16.9795H8.88556Z" fill="black"/>
<path d="M32.7959 40.494H15.2109V10.0401C15.2117 9.36817 15.4789 8.724 15.954 8.2489C16.4291 7.7738 17.0732 7.50657 17.7451 7.50586H30.2617C30.9336 7.50657 31.5778 7.7738 32.0529 8.2489C32.528 8.724 32.7952 9.36817 32.7959 10.0401V40.494ZM16.6279 39.076H31.3789V10.0401C31.3785 9.7439 31.2606 9.45999 31.0512 9.25058C30.8418 9.04116 30.5579 8.92331 30.2617 8.92286H17.7451C17.449 8.92331 17.1651 9.04116 16.9557 9.25058C16.7462 9.45999 16.6284 9.7439 16.6279 10.0401V39.076Z" fill="black"/>
</svg>
