<svg width="48" height="48" viewBox="0 0 48 48" fill="none" xmlns="http://www.w3.org/2000/svg">
<path d="M23.6069 42.0156C22.9294 42.0157 22.2641 41.835 21.6796 41.4922L9.64893 34.4293C9.07778 34.0919 8.60419 33.6118 8.27469 33.0361C7.94519 32.4604 7.77111 31.8088 7.76953 31.1455V16.9293C7.77101 16.2659 7.94505 15.6142 8.27456 15.0384C8.60406 14.4626 9.0777 13.9824 9.64893 13.6451L21.6789 6.58158C22.2637 6.23911 22.9291 6.05859 23.6067 6.05859C24.2843 6.05859 24.9497 6.23911 25.5344 6.58158L37.5652 13.6451C38.1366 13.9823 38.6104 14.4625 38.94 15.0383C39.2696 15.6141 39.4437 16.2658 39.4452 16.9293V31.1455C39.4437 31.809 39.2696 32.4606 38.94 33.0364C38.6103 33.6122 38.1366 34.0924 37.5652 34.4297L25.5352 41.4922C24.9505 41.835 24.2848 42.0157 23.6069 42.0156V42.0156ZM23.6069 7.47558C23.1812 7.4757 22.7632 7.5893 22.3959 7.80468L10.3659 14.8681C10.0073 15.0797 9.70996 15.381 9.50317 15.7424C9.29637 16.1038 9.18724 16.5129 9.18653 16.9293V31.1455C9.18725 31.562 9.29644 31.9711 9.50335 32.3326C9.71026 32.6941 10.0078 32.9954 10.3665 33.207L22.3965 40.2695C22.7636 40.4848 23.1814 40.5984 23.607 40.5984C24.0325 40.5984 24.4504 40.4848 24.8174 40.2695L36.8474 33.207C37.2062 32.9953 37.5036 32.6939 37.7106 32.3325C37.9176 31.9711 38.0271 31.562 38.0281 31.1455V16.9293C38.0271 16.5128 37.9176 16.1037 37.7106 15.7422C37.5036 15.3808 37.2062 15.0794 36.8474 14.8677L24.8174 7.80428C24.4505 7.58903 24.0328 7.47556 23.6074 7.47558H23.6069Z" fill="black"/>
<path d="M23.6773 42.0705C23.5842 42.0705 23.492 42.0521 23.4061 42.0165C23.3201 41.9809 23.2419 41.9286 23.1761 41.8628C23.1103 41.7969 23.0582 41.7188 23.0226 41.6328C22.987 41.5467 22.9687 41.4546 22.9688 41.3615V6.78137C22.9677 6.68763 22.9852 6.5946 23.0203 6.50767C23.0554 6.42074 23.1074 6.34164 23.1733 6.27495C23.2392 6.20827 23.3177 6.15533 23.4042 6.11919C23.4907 6.08306 23.5835 6.06445 23.6772 6.06445C23.771 6.06445 23.8638 6.08306 23.9503 6.11919C24.0368 6.15533 24.1153 6.20827 24.1812 6.27495C24.2471 6.34164 24.2991 6.42074 24.3342 6.50767C24.3693 6.5946 24.3868 6.68763 24.3857 6.78137V41.3614C24.3858 41.4545 24.3675 41.5467 24.332 41.6327C24.2964 41.7187 24.2443 41.7969 24.1785 41.8627C24.1127 41.9286 24.0345 41.9808 23.9486 42.0165C23.8626 42.0521 23.7704 42.0705 23.6773 42.0705V42.0705Z" fill="black"/>
<path d="M38.3708 33.5195C38.2428 33.5197 38.1171 33.4849 38.0075 33.4189L8.87635 15.9803C8.71499 15.8839 8.59857 15.7272 8.55269 15.5449C8.5068 15.3626 8.53523 15.1695 8.6317 15.0082C8.72817 14.8468 8.88479 14.7304 9.06711 14.6845C9.24942 14.6386 9.44249 14.6671 9.60385 14.7635L38.7348 32.2021C38.8679 32.2818 38.9712 32.4029 39.0289 32.547C39.0866 32.691 39.0954 32.85 39.0541 32.9995C39.0127 33.149 38.9235 33.2809 38.8 33.3748C38.6765 33.4688 38.5256 33.5196 38.3705 33.5195H38.3708Z" fill="black"/>
<path d="M38.0371 14.7333L8.88281 31.8486L9.6006 33.0713L38.7549 15.956L38.0371 14.7333Z" fill="black"/>
</svg>
