<svg width="48" height="48" viewBox="0 0 48 48" fill="none" xmlns="http://www.w3.org/2000/svg">
<path d="M39.2354 31.9053H8.65139C7.9795 31.9045 7.33535 31.6373 6.86026 31.1622C6.38516 30.6871 6.11793 30.0429 6.11719 29.3711V10.2275C6.11793 9.55558 6.38517 8.91144 6.86026 8.43636C7.33536 7.96129 7.97951 7.69407 8.65139 7.69336H39.2354C39.9073 7.69407 40.5514 7.96129 41.0265 8.43636C41.5016 8.91144 41.7688 9.55558 41.7696 10.2275V29.3711C41.7688 30.0429 41.5016 30.6871 41.0265 31.1622C40.5514 31.6373 39.9073 31.9045 39.2354 31.9053V31.9053ZM8.65139 9.11056C8.35523 9.11101 8.07132 9.22886 7.8619 9.43828C7.65249 9.64769 7.53464 9.9316 7.53419 10.2278V29.3711C7.53477 29.6671 7.65269 29.9508 7.86211 30.16C8.07153 30.3693 8.35536 30.4869 8.65139 30.4873H39.2354C39.5314 30.4869 39.8152 30.3693 40.0247 30.16C40.2341 29.9508 40.352 29.6671 40.3526 29.3711V10.2275C40.3521 9.93135 40.2342 9.64752 40.0248 9.43817C39.8154 9.22882 39.5315 9.11101 39.2354 9.11056H8.65139Z" fill="black"/>
<path d="M24.667 31.2188H23.25V38.8204H24.667V31.2188Z" fill="black"/>
<path d="M29.1279 39.9698H18.8027C18.6147 39.9698 18.4344 39.8951 18.3014 39.7621C18.1684 39.6291 18.0938 39.4488 18.0938 39.2608C18.0938 39.0727 18.1684 38.8924 18.3014 38.7594C18.4344 38.6265 18.6147 38.5518 18.8027 38.5518H29.1279C29.316 38.5518 29.4963 38.6265 29.6293 38.7594C29.7622 38.8924 29.8369 39.0727 29.8369 39.2608C29.8369 39.4488 29.7622 39.6291 29.6293 39.7621C29.4963 39.8951 29.316 39.9698 29.1279 39.9698V39.9698Z" fill="black"/>
<path d="M22.0945 24.8085C21.9773 24.8082 21.8621 24.779 21.759 24.7233C21.6559 24.6676 21.5682 24.5872 21.5038 24.4894C21.4393 24.3916 21.4001 24.2793 21.3896 24.1627C21.3791 24.046 21.3976 23.9285 21.4436 23.8207L25.1236 15.2158C25.1602 15.1303 25.2133 15.0528 25.2799 14.9878C25.3464 14.9228 25.4251 14.8715 25.5115 14.8369C25.5979 14.8023 25.6902 14.7851 25.7832 14.7862C25.8763 14.7873 25.9682 14.8067 26.0537 14.8433C26.1393 14.8799 26.2168 14.933 26.2818 14.9996C26.3468 15.0661 26.3981 15.1448 26.4326 15.2312C26.4672 15.3176 26.4845 15.4099 26.4834 15.503C26.4823 15.596 26.4629 15.6879 26.4263 15.7734L22.7463 24.3784C22.6918 24.5061 22.6009 24.615 22.485 24.6915C22.3691 24.7679 22.2333 24.8087 22.0945 24.8085V24.8085Z" fill="black"/>
<path d="M16.4004 20.5371C16.262 20.5372 16.1265 20.4967 16.0108 20.4207C15.8951 20.3447 15.8042 20.2364 15.7494 20.1093C15.6945 19.9822 15.6781 19.8418 15.7022 19.7055C15.7263 19.5692 15.7897 19.4429 15.8848 19.3423L19.0273 16.0106C19.1563 15.8738 19.3343 15.7939 19.5222 15.7884C19.7101 15.7829 19.8925 15.8523 20.0293 15.9813C20.1661 16.1102 20.246 16.2883 20.2515 16.4762C20.257 16.6641 20.1876 16.8465 20.0586 16.9833L16.916 20.3148C16.8498 20.3851 16.7699 20.4411 16.6812 20.4793C16.5925 20.5176 16.497 20.5372 16.4004 20.5371Z" fill="black"/>
<path d="M19.5367 23.9295C19.4401 23.9297 19.3445 23.9101 19.2558 23.8719C19.1671 23.8337 19.0872 23.7777 19.021 23.7074L15.8785 20.3758C15.8134 20.3084 15.7623 20.2286 15.7282 20.1413C15.6941 20.0539 15.6777 19.9607 15.6799 19.867C15.6821 19.7732 15.7029 19.6808 15.741 19.5952C15.7792 19.5095 15.8339 19.4323 15.9022 19.368C15.9704 19.3036 16.0507 19.2535 16.1384 19.2204C16.2261 19.1873 16.3196 19.172 16.4133 19.1752C16.507 19.1785 16.5991 19.2004 16.6843 19.2395C16.7695 19.2786 16.8461 19.3343 16.9097 19.4032L20.0523 22.7347C20.1473 22.8354 20.2108 22.9617 20.2349 23.098C20.2589 23.2343 20.2425 23.3747 20.1877 23.5018C20.1328 23.6289 20.0419 23.7372 19.9262 23.8132C19.8105 23.8892 19.6751 23.9296 19.5367 23.9295V23.9295Z" fill="black"/>
<path d="M28.3297 23.9556C28.1913 23.9556 28.0559 23.9151 27.9403 23.839C27.8246 23.763 27.7338 23.6547 27.679 23.5276C27.6242 23.4005 27.6078 23.2601 27.6319 23.1238C27.656 22.9875 27.7195 22.8612 27.8145 22.7606L30.9571 19.4296C31.0207 19.3607 31.0973 19.305 31.1825 19.2659C31.2677 19.2267 31.3598 19.2049 31.4535 19.2016C31.5473 19.1983 31.6407 19.2137 31.7284 19.2468C31.8162 19.2798 31.8965 19.33 31.9647 19.3943C32.0329 19.4587 32.0876 19.5359 32.1258 19.6216C32.164 19.7072 32.1847 19.7996 32.1869 19.8933C32.1891 19.9871 32.1727 20.0803 32.1386 20.1677C32.1045 20.255 32.0535 20.3347 31.9883 20.4022L28.8458 23.7333C28.7796 23.8037 28.6996 23.8597 28.6108 23.8979C28.522 23.9362 28.4264 23.9558 28.3297 23.9556Z" fill="black"/>
<path d="M31.4721 20.5599C31.3755 20.5601 31.2799 20.5404 31.1912 20.5022C31.1026 20.464 31.0227 20.408 30.9565 20.3377L27.8143 17.0067C27.7504 16.939 27.7005 16.8593 27.6674 16.7723C27.6343 16.6853 27.6187 16.5927 27.6214 16.4996C27.6241 16.4066 27.6451 16.315 27.6833 16.2301C27.7214 16.1451 27.7759 16.0686 27.8436 16.0047C27.9113 15.9408 27.9909 15.8909 28.0779 15.8578C28.1649 15.8247 28.2576 15.8091 28.3506 15.8118C28.4437 15.8145 28.5353 15.8356 28.6202 15.8737C28.7051 15.9118 28.7817 15.9663 28.8456 16.034L31.9881 19.3651C32.0831 19.4658 32.1465 19.592 32.1706 19.7284C32.1946 19.8647 32.1782 20.005 32.1233 20.1321C32.0685 20.2592 31.9776 20.3674 31.862 20.4435C31.7463 20.5195 31.6109 20.56 31.4725 20.5599H31.4721Z" fill="black"/>
</svg>
