<svg width="48" height="48" viewBox="0 0 48 48" fill="none" xmlns="http://www.w3.org/2000/svg">
<path d="M21.7515 42.7688C21.2732 42.7619 20.817 42.5657 20.483 42.2233C20.1489 41.8808 19.9642 41.4198 19.9693 40.9415V38.6253C19.07 38.3404 18.2008 37.9681 17.374 37.5139L15.7998 39.1389C15.6353 39.3104 15.4377 39.4468 15.219 39.5399C15.0004 39.6331 14.7651 39.681 14.5274 39.6809H14.5254C14.2881 39.6808 14.0533 39.6327 13.8351 39.5396C13.6168 39.4465 13.4197 39.3101 13.2554 39.1389L9.77833 35.5442C9.45158 35.1996 9.26937 34.7428 9.2692 34.268C9.26903 33.7931 9.45093 33.3363 9.77744 32.9915L11.375 31.343C10.928 30.4768 10.5644 29.57 10.2891 28.6349H8.05183C7.5735 28.6281 7.11737 28.432 6.78334 28.0895C6.4493 27.7471 6.26459 27.2862 6.26963 26.8079V21.7278C6.26453 21.25 6.44899 20.7897 6.78262 20.4476C7.11624 20.1055 7.57184 19.9095 8.04963 19.9026H10.2805C10.5561 18.9672 10.9201 18.0602 11.3674 17.1936L9.77794 15.548C9.45148 15.2035 9.26945 14.747 9.26926 14.2724C9.26908 13.7978 9.45075 13.3411 9.77693 12.9963L13.1805 9.47775L13.3275 9.18285H13.5075C13.8053 8.96954 14.1627 8.85541 14.5289 8.85665C15.0045 8.87906 15.4562 9.07179 15.8014 9.39965L17.3746 11.0226C18.2014 10.5689 19.0706 10.1973 19.9699 9.91335V7.58515C19.9691 7.10688 20.1558 6.64736 20.4899 6.30515C20.6526 6.1313 20.8501 5.9937 21.0695 5.90131C21.2889 5.80892 21.5253 5.76382 21.7633 5.76895H26.6857C27.1616 5.7761 27.6155 5.97045 27.9491 6.30989C28.2827 6.64933 28.4691 7.10653 28.4679 7.58245V9.91335C29.3694 10.1948 30.2413 10.5637 31.0709 11.0148L32.6373 9.39865C32.8018 9.22705 32.9994 9.09056 33.2181 8.99741C33.4368 8.90426 33.6721 8.85637 33.9098 8.85665H33.9127C34.1502 8.85637 34.3852 8.90436 34.6035 8.99771C34.8218 9.09105 35.0189 9.2278 35.1827 9.39965L38.6675 12.9943C38.9944 13.339 39.1767 13.7959 39.177 14.2709C39.1772 14.7459 38.9955 15.203 38.669 15.548L37.063 17.2023C37.5121 18.0657 37.8782 18.9698 38.1563 19.9023H40.3963C40.6338 19.9028 40.8687 19.9515 41.0868 20.0453C41.3049 20.1391 41.5018 20.2762 41.6654 20.4482C41.9967 20.7925 42.18 21.2527 42.1761 21.7304V26.8175C42.177 27.2957 41.9903 27.7553 41.6561 28.0975C41.492 28.2676 41.2951 28.4029 41.0774 28.4952C40.8596 28.5875 40.6255 28.6349 40.389 28.6346H38.1646C37.8867 29.5699 37.5205 30.4766 37.0708 31.3426L38.667 32.9901C38.994 33.3345 39.1763 33.7912 39.1766 34.2661C39.1769 34.741 38.9951 35.1979 38.6685 35.5428L35.1812 39.1385C35.0166 39.3099 34.819 39.4463 34.6004 39.5395C34.3817 39.6326 34.1464 39.6806 33.9087 39.6805H33.9077C33.6703 39.6806 33.4352 39.6327 33.2168 39.5395C32.9983 39.4464 32.801 39.3099 32.6367 39.1385L31.063 37.5135C30.2364 37.9678 29.3671 38.3401 28.4678 38.6249V40.9432C28.4729 41.4208 28.2886 41.8809 27.9553 42.223C27.6219 42.565 27.1666 42.7611 26.689 42.7684L21.7515 42.7688ZM17.1309 35.7287L17.6128 36.0178C18.6287 36.6281 19.7229 37.0973 20.8653 37.4124L21.3863 37.555V40.9436C21.3816 41.0463 21.4177 41.1468 21.4868 41.2231C21.5558 41.2994 21.6522 41.3453 21.7549 41.3509H26.6856C26.7874 41.3449 26.8827 41.2991 26.951 41.2235C27.0194 41.1479 27.0552 41.0484 27.0508 40.9466V37.555L27.5718 37.4124C28.7145 37.0976 29.8088 36.628 30.8242 36.0169L31.3067 35.7287L33.6548 38.1526C33.6875 38.1873 33.7268 38.215 33.7704 38.2341C33.8141 38.2533 33.8611 38.2634 33.9087 38.2639C33.9561 38.2636 34.003 38.2537 34.0465 38.2348C34.09 38.2159 34.1291 38.1884 34.1616 38.1539L37.6494 34.5582C37.7224 34.4787 37.7627 34.3747 37.7625 34.2669C37.7622 34.159 37.7213 34.0552 37.648 33.9762L35.3238 31.5762L35.583 31.1153C36.1795 30.0569 36.6353 28.9253 36.939 27.7491L37.0762 27.2169H40.3862C40.434 27.2166 40.4811 27.2069 40.525 27.1881C40.5689 27.1693 40.6085 27.1419 40.6415 27.1075C40.7172 27.0291 40.7592 26.9243 40.7587 26.8154V21.7277C40.7605 21.6176 40.7194 21.5112 40.644 21.4308C40.6116 21.3968 40.5726 21.3696 40.5296 21.3507C40.4865 21.3318 40.4401 21.3217 40.393 21.3209H37.0679L36.9312 20.7887C36.6266 19.615 36.1704 18.4861 35.5742 17.4302L35.315 16.9682L37.6494 14.563C37.7225 14.4833 37.7629 14.3789 37.7626 14.2707C37.7622 14.1625 37.7211 14.0584 37.6475 13.979L34.1636 10.3852C34.1312 10.3504 34.092 10.3226 34.0484 10.3035C34.0048 10.2844 33.9578 10.2743 33.9102 10.2739H33.9097C33.8623 10.2742 33.8153 10.2841 33.7718 10.303C33.7282 10.3219 33.689 10.3494 33.6563 10.3839L31.3145 12.7989L30.8325 12.5108C29.8139 11.9034 28.7171 11.4378 27.5725 11.127L27.051 10.9844V7.58515C27.0542 7.48381 27.0174 7.3853 26.9486 7.3108C26.8798 7.2363 26.7846 7.19176 26.6833 7.18675H21.7578C21.7103 7.18675 21.6633 7.19635 21.6196 7.21498C21.5759 7.2336 21.5364 7.26087 21.5034 7.29515C21.4276 7.37374 21.3856 7.47893 21.3863 7.58815V10.9845L20.8648 11.1271C19.7223 11.4406 18.6281 11.9092 17.6128 12.5197L17.1309 12.8078L14.7823 10.3849C14.7498 10.3502 14.7106 10.3224 14.667 10.3032C14.6235 10.2841 14.5764 10.274 14.5288 10.2736H14.5283C14.4374 10.2742 14.3502 10.31 14.2852 10.3736L14.2744 10.3844L10.7969 13.9801C10.7237 14.0598 10.6831 14.1641 10.6833 14.2723C10.6835 14.3805 10.7244 14.4847 10.7979 14.564L13.1133 16.9614L12.8545 17.4214C12.2604 18.4803 11.8072 19.6123 11.5064 20.7887L11.3692 21.3209H8.05183C7.94982 21.3266 7.85422 21.3725 7.78582 21.4484C7.71741 21.5243 7.68173 21.6241 7.68653 21.7262V26.81C7.68182 26.9129 7.71793 27.0133 7.78699 27.0896C7.85606 27.1659 7.95247 27.2118 8.05523 27.2174H11.378L11.5152 27.7496C11.8157 28.9256 12.2687 30.0573 12.8628 31.1158L13.1221 31.5766L10.7964 33.9767C10.7235 34.0561 10.6832 34.1601 10.6835 34.268C10.6837 34.3759 10.7246 34.4797 10.7979 34.5588L14.2744 38.1525C14.307 38.187 14.3462 38.2146 14.3897 38.2337C14.4331 38.2529 14.48 38.2631 14.5274 38.2638H14.5279C14.5754 38.2632 14.6222 38.2532 14.6657 38.2343C14.7092 38.2154 14.7485 38.188 14.7813 38.1538L17.1309 35.7287Z" fill="black"/>
<path d="M24.2192 34.2695C22.2406 34.2696 20.3064 33.683 18.6612 32.5838C17.016 31.4846 15.7337 29.9223 14.9765 28.0943C14.2192 26.2663 14.0211 24.2549 14.407 22.3143C14.793 20.3737 15.7457 18.5911 17.1447 17.192C18.5438 15.7929 20.3263 14.84 22.2669 14.454C24.2075 14.0679 26.219 14.266 28.047 15.0232C29.875 15.7803 31.4374 17.0626 32.5367 18.7077C33.6359 20.3528 34.2227 22.287 34.2227 24.2656C34.2197 26.9178 33.1648 29.4606 31.2895 31.336C29.4141 33.2114 26.8715 34.2664 24.2192 34.2695V34.2695ZM24.2192 15.6795C22.5211 15.6796 20.8611 16.1832 19.4492 17.1267C18.0373 18.0702 16.9369 19.4112 16.2871 20.9801C15.6373 22.549 15.4673 24.2754 15.7987 25.9409C16.13 27.6064 16.9478 29.1362 18.1486 30.3369C19.3494 31.5377 20.8793 32.3553 22.5448 32.6866C24.2103 33.0178 25.9367 32.8478 27.5055 32.1979C29.0744 31.548 30.4153 30.4475 31.3587 29.0355C32.3021 27.6236 32.8057 25.9636 32.8057 24.2654C32.8029 21.9891 31.8974 19.8067 30.2877 18.1972C28.678 16.5876 26.4956 15.6823 24.2192 15.6797V15.6795Z" fill="black"/>
<path d="M23.608 24.8057H15.2637C15.0756 24.8057 14.8953 24.731 14.7623 24.598C14.6294 24.4651 14.5547 24.2847 14.5547 24.0967C14.5547 23.9087 14.6294 23.7283 14.7623 23.5954C14.8953 23.4624 15.0756 23.3877 15.2637 23.3877H23.608C23.796 23.3877 23.9764 23.4624 24.1093 23.5954C24.2423 23.7283 24.317 23.9087 24.317 24.0967C24.317 24.2847 24.2423 24.4651 24.1093 24.598C23.9764 24.731 23.796 24.8057 23.608 24.8057V24.8057Z" fill="black"/>
<path d="M24.2373 24.789C24.1442 24.7892 24.052 24.7709 23.966 24.7352C23.88 24.6995 23.8019 24.6471 23.7363 24.581L21.8872 22.731C21.7543 22.5981 21.6797 22.4179 21.6797 22.23C21.6797 22.0421 21.7543 21.8619 21.8872 21.729C22.0201 21.5961 22.2003 21.5215 22.3882 21.5215C22.5761 21.5215 22.7563 21.5961 22.8892 21.729L24.7383 23.579C24.8373 23.6782 24.9047 23.8044 24.932 23.9419C24.9593 24.0793 24.9453 24.2218 24.8917 24.3512C24.8381 24.4807 24.7473 24.5914 24.6309 24.6693C24.5144 24.7472 24.3774 24.7889 24.2373 24.789V24.789Z" fill="black"/>
<path d="M22.4114 26.6555C22.2713 26.6553 22.1344 26.6137 22.0179 26.5358C21.9014 26.4578 21.8107 26.3472 21.7571 26.2177C21.7034 26.0882 21.6894 25.9458 21.7167 25.8083C21.744 25.6709 21.8114 25.5446 21.9104 25.4455L23.7596 23.5955C23.8253 23.529 23.9034 23.4761 23.9896 23.44C24.0757 23.4038 24.1681 23.3851 24.2616 23.3848C24.355 23.3845 24.4475 23.4027 24.5339 23.4383C24.6203 23.4739 24.6987 23.5262 24.7648 23.5923C24.8309 23.6584 24.8832 23.7368 24.9188 23.8232C24.9544 23.9096 24.9726 24.0021 24.9723 24.0956C24.972 24.189 24.9532 24.2814 24.917 24.3676C24.8809 24.4537 24.828 24.5318 24.7615 24.5975L22.9124 26.4475C22.8468 26.5135 22.7687 26.5658 22.6827 26.6015C22.5967 26.6372 22.5045 26.6555 22.4114 26.6555V26.6555Z" fill="black"/>
</svg>
